<?xml version="1.0"?>
<svg xmlns="http://www.w3.org/2000/svg" xmlns:xlink="http://www.w3.org/1999/xlink" xmlns:svgjs="http://svgjs.com/svgjs" version="1.1" x="0" y="0" viewBox="0 0 512 512" style="cursor:pointer;" xml:space="preserve" id="option_img" class=""><g>
<g xmlns="http://www.w3.org/2000/svg">
	<g>
		<path d="M135.061,326.336c-4.555,5.386-7.056,12.21-7.061,19.264c-0.001,7.065,2.509,13.9,7.083,19.285l42.069-42.069    C164.557,312.165,145.712,313.741,135.061,326.336z" fill="#fe5f55" data-original="#000000" style="" class="option_img"/>
	</g>
</g>
<g xmlns="http://www.w3.org/2000/svg">
	<g>
		<path d="M406.869,117.419l-37.803,37.803c9.501,8.126,14.959,20.01,14.933,32.512c-0.084,23.564-19.255,42.598-42.819,42.514    c-12.465-0.044-24.288-5.538-32.36-15.037l-32.256,32.256H460.8C458.822,199.092,439.707,152.996,406.869,117.419z     M415.659,185.259c-1.61,1.597-3.79,2.488-6.059,2.475c-1.119,0.029-2.23-0.205-3.243-0.683c-1.034-0.432-1.987-1.038-2.816-1.792    c-1.597-1.61-2.488-3.79-2.475-6.059c0.013-1.115,0.245-2.217,0.683-3.243c0.432-1.034,1.038-1.987,1.792-2.816    c0.812-0.777,1.768-1.386,2.816-1.792c2.078-0.854,4.408-0.854,6.485,0c0.525,0.169,1.016,0.429,1.451,0.768    c0.488,0.295,0.946,0.638,1.365,1.024c1.559,1.635,2.443,3.799,2.475,6.059c-0.013,1.115-0.245,2.217-0.683,3.243    C417.017,183.476,416.411,184.428,415.659,185.259z M432.64,227.755c-1.561,1.639-3.71,2.591-5.973,2.645    c-1.119,0.029-2.23-0.205-3.243-0.683c-1.034-0.432-1.987-1.038-2.816-1.792c-0.752-0.83-1.358-1.783-1.792-2.816    c-0.913-2.065-0.913-4.42,0-6.485c0.391-1.055,1.002-2.015,1.792-2.816l1.28-1.024c0.475-0.325,0.991-0.583,1.536-0.768    c0.474-0.304,0.992-0.534,1.536-0.683c2.784-0.557,5.663,0.306,7.68,2.304c0.842,0.775,1.485,1.741,1.877,2.816    c0.913,2.065,0.913,4.42,0,6.485C434.086,225.993,433.448,226.951,432.64,227.755z" fill="#fe5f55" data-original="#000000" style="" class=""/>
	</g>
</g>
<g xmlns="http://www.w3.org/2000/svg">
	<g>
		<path d="M51.2,264.533c1.978,48.375,21.093,94.47,53.931,130.048l17.664-17.664c-7.677-8.621-11.901-19.773-11.861-31.317    c-0.075-25.873,20.838-46.909,46.711-46.984c11.65-0.034,22.894,4.274,31.539,12.083l46.251-46.165H51.2z M91.392,313.173    c-1.596,1.629-3.778,2.551-6.059,2.56c-2.28-0.009-4.462-0.931-6.059-2.56c-1.576-1.589-2.465-3.735-2.475-5.973    c0-4.713,3.82-8.533,8.533-8.533s8.533,3.82,8.533,8.533C93.857,309.439,92.969,311.584,91.392,313.173z M110.933,298.667    c-1.119,0.029-2.23-0.205-3.243-0.683c-1.047-0.406-2.004-1.015-2.816-1.792v-0.085c-1.576-1.589-2.465-3.735-2.475-5.973    c-0.013-2.268,0.877-4.448,2.475-6.059c2.017-1.998,4.896-2.861,7.68-2.304c0.565,0.082,1.112,0.255,1.621,0.512    c0.525,0.169,1.016,0.429,1.451,0.768c0.488,0.295,0.946,0.638,1.365,1.024c1.559,1.635,2.443,3.799,2.475,6.059    C119.467,294.846,115.646,298.667,110.933,298.667z" fill="#fe5f55" data-original="#000000" style="" class=""/>
	</g>
</g>
<g xmlns="http://www.w3.org/2000/svg">
	<g>
		<circle cx="315.733" cy="110.933" r="17.067" fill="#fe5f55" data-original="#000000" style="" class=""/>
	</g>
</g>
<g xmlns="http://www.w3.org/2000/svg">
	<g>
		<path d="M356.693,167.339l-35.84,35.84c8.483,11.311,24.529,13.603,35.84,5.12c6.47-4.853,10.267-12.478,10.24-20.566    C366.907,179.706,363.116,172.155,356.693,167.339z" fill="#fe5f55" data-original="#000000" style="" class=""/>
	</g>
</g>
<g xmlns="http://www.w3.org/2000/svg">
	<g>
		<path d="M117.419,105.131L139.947,128l39.253,39.253l68.267,68.267V51.2C199.092,53.178,152.996,72.293,117.419,105.131z     M227.925,168.192v0.085c-1.624,1.566-3.803,2.425-6.059,2.389c-1.119,0.029-2.23-0.205-3.243-0.683    c-1.047-0.406-2.004-1.015-2.816-1.792c-1.597-1.61-2.488-3.79-2.475-6.059c0.013-1.115,0.245-2.217,0.683-3.243    c0.432-1.034,1.038-1.987,1.792-2.816c0.812-0.777,1.769-1.386,2.816-1.792c2.078-0.854,4.408-0.854,6.485,0    c1.047,0.406,2.004,1.015,2.816,1.792c1.559,1.635,2.443,3.799,2.475,6.059C230.413,164.402,229.523,166.582,227.925,168.192z     M200.533,145.067c-16.495,0-29.867-13.372-29.867-29.867c0-16.495,13.372-29.867,29.867-29.867    c16.495,0,29.867,13.372,29.867,29.867C230.4,131.695,217.028,145.067,200.533,145.067z" fill="#fe5f55" data-original="#000000" style="" class=""/>
	</g>
</g>
<g xmlns="http://www.w3.org/2000/svg">
	<g>
		<path d="M194.987,329.045l-53.589,53.675l-23.979,23.979c35.553,32.899,81.651,52.077,130.048,54.101V276.565L194.987,329.045z     M214.016,338.091c0.406-1.048,1.015-2.004,1.792-2.816c2.017-1.998,4.896-2.861,7.68-2.304c0.565,0.082,1.112,0.255,1.621,0.512    c0.545,0.185,1.061,0.443,1.536,0.768l1.28,1.024c0.777,0.812,1.386,1.768,1.792,2.816c1.797,4.357-0.277,9.345-4.634,11.143    c-3.18,1.312-6.837,0.586-9.275-1.841c-1.597-1.61-2.488-3.79-2.475-6.059C213.347,340.218,213.579,339.117,214.016,338.091z     M196.267,435.2c-18.851,0-34.133-15.282-34.133-34.133c0-18.851,15.282-34.133,34.133-34.133s34.133,15.282,34.133,34.133    C230.4,419.918,215.118,435.2,196.267,435.2z" fill="#fe5f55" data-original="#000000" style="" class=""/>
	</g>
</g>
<g xmlns="http://www.w3.org/2000/svg">
	<g>
		<circle cx="200.533" cy="115.2" r="12.8" fill="#fe5f55" data-original="#000000" style="" class=""/>
	</g>
</g>
<g xmlns="http://www.w3.org/2000/svg">
	<g>
		<path d="M264.533,51.2v184.235l35.584-35.584l53.333-53.333l41.131-41.131C359.041,72.456,312.941,53.248,264.533,51.2z     M297.984,173.909c-0.776,2.144-2.464,3.832-4.608,4.608c-1.013,0.478-2.123,0.711-3.243,0.683    c-4.713-0.023-8.514-3.863-8.491-8.576c0.005-1.098,0.223-2.185,0.64-3.2c0.432-1.034,1.038-1.987,1.792-2.816    c2.017-1.998,4.896-2.861,7.68-2.304c0.565,0.082,1.112,0.255,1.621,0.512c0.525,0.169,1.016,0.429,1.451,0.768l1.365,1.024    c1.559,1.635,2.443,3.799,2.475,6.059C298.695,171.786,298.462,172.897,297.984,173.909z M315.733,145.067    c-18.851,0-34.133-15.282-34.133-34.133S296.882,76.8,315.733,76.8s34.133,15.282,34.133,34.133S334.585,145.067,315.733,145.067z    " fill="#fe5f55" data-original="#000000" style="" class=""/>
	</g>
</g>
<g xmlns="http://www.w3.org/2000/svg">
	<g>
		<path d="M276.565,264.533l39.168,38.827l63.573,63.573l27.392,27.392c32.844-35.487,52.017-81.484,54.101-129.792H276.565z     M396.8,341.333c-16.495,0-29.867-13.372-29.867-29.867S380.305,281.6,396.8,281.6c16.495,0,29.867,13.372,29.867,29.867    S413.295,341.333,396.8,341.333z" fill="#fe5f55" data-original="#000000" style="" class=""/>
	</g>
</g>
<g xmlns="http://www.w3.org/2000/svg">
	<g>
		<circle cx="396.8" cy="311.467" r="12.8" fill="#fe5f55" data-original="#000000" style="" class=""/>
	</g>
</g>
<g xmlns="http://www.w3.org/2000/svg">
	<g>
		<path d="M256,0C114.615,0,0,114.615,0,256s114.615,256,256,256s256-114.615,256-256S397.385,0,256,0z M256,477.867    c-122.534,0-221.867-99.333-221.867-221.867S133.466,34.133,256,34.133S477.867,133.466,477.867,256S378.534,477.867,256,477.867z    " fill="#fe5f55" data-original="#000000" style="" class=""/>
	</g>
</g>
<g xmlns="http://www.w3.org/2000/svg">
	<g>
		<path d="M314.283,326.315c-10.576,12.658-8.889,31.493,3.769,42.069c11.086,9.263,27.214,9.263,38.3,0L314.283,326.315z" fill="#fe5f55" data-original="#000000" style="" class=""/>
	</g>
</g>
<g xmlns="http://www.w3.org/2000/svg">
	<g>
		<path d="M173.739,185.856c-10.654,18.283-34.112,24.468-52.395,13.814c-18.283-10.654-24.468-34.112-13.814-52.395    c3.334-5.721,8.093-10.48,13.814-13.814l-16.043-16.043C72.402,152.971,53.225,199.07,51.2,247.467h184.235L173.739,185.856z     M91.392,219.392c-3.319,3.346-8.722,3.368-12.068,0.049c-0.017-0.016-0.033-0.033-0.049-0.049    c-0.752-0.831-1.358-1.783-1.792-2.816c-0.437-1.026-0.669-2.128-0.683-3.243c-0.013-2.268,0.877-4.448,2.475-6.059l1.28-1.024    c0.475-0.325,0.991-0.583,1.536-0.768c3.178-1.336,6.847-0.629,9.301,1.792c1.597,1.61,2.488,3.791,2.475,6.059    C93.88,215.602,92.989,217.782,91.392,219.392z M127.317,224.939v0.171c-0.434,1.033-1.04,1.986-1.792,2.816    c-1.61,1.597-3.79,2.488-6.059,2.475c-1.119,0.029-2.23-0.205-3.243-0.683c-1.047-0.406-2.004-1.015-2.816-1.792    c-0.748-0.851-1.379-1.798-1.877-2.816c-0.408-1.032-0.611-2.133-0.597-3.243c-0.032-1.12,0.202-2.231,0.683-3.243    c0.406-1.047,1.015-2.004,1.792-2.816l1.28-1.024c0.475-0.325,0.991-0.583,1.536-0.768c0.474-0.304,0.992-0.534,1.536-0.683    c4-0.797,8.004,1.349,9.557,5.12C128.23,220.519,128.23,222.873,127.317,224.939z" fill="#fe5f55" data-original="#000000" style="" class=""/>
	</g>
</g>
<g xmlns="http://www.w3.org/2000/svg">
	<g>
		<circle cx="196.267" cy="401.067" r="17.067" fill="#fe5f55" data-original="#000000" style="" class=""/>
	</g>
</g>
<g xmlns="http://www.w3.org/2000/svg">
	<g>
		<path d="M368.384,380.672c-8.621,7.677-19.773,11.901-31.317,11.861c-25.873,0.075-46.909-20.838-46.984-46.711    c-0.034-11.65,4.274-22.894,12.083-31.539l-37.632-37.717V460.8c48.375-1.978,94.47-21.093,130.048-53.931L368.384,380.672z     M304.725,424.192c-3.319,3.346-8.722,3.368-12.068,0.05c-1.628-1.614-2.537-3.816-2.524-6.108c-0.037-0.568-0.037-1.138,0-1.707    c0.095-0.534,0.267-1.052,0.512-1.536c0.185-0.545,0.443-1.061,0.768-1.536c0.316-0.447,0.657-0.874,1.024-1.28    c3.319-3.346,8.722-3.368,12.068-0.049c0.017,0.016,0.033,0.033,0.049,0.049c1.66,1.582,2.613,3.766,2.645,6.059    C307.213,420.402,306.323,422.582,304.725,424.192z" fill="#fe5f55" data-original="#000000" style="" class=""/>
	</g>
</g>
<g xmlns="http://www.w3.org/2000/svg">
	<g>
		<path d="M134.144,146.176c-11.17,3.749-17.185,15.843-13.436,27.013c2.901,8.643,10.975,14.488,20.092,14.544    c9.21,0.008,17.376-5.919,20.224-14.677L134.144,146.176z" fill="#fe5f55" data-original="#000000" style="" class=""/>
	</g>
</g>
<g xmlns="http://www.w3.org/2000/svg">
</g>
<g xmlns="http://www.w3.org/2000/svg">
</g>
<g xmlns="http://www.w3.org/2000/svg">
</g>
<g xmlns="http://www.w3.org/2000/svg">
</g>
<g xmlns="http://www.w3.org/2000/svg">
</g>
<g xmlns="http://www.w3.org/2000/svg">
</g>
<g xmlns="http://www.w3.org/2000/svg">
</g>
<g xmlns="http://www.w3.org/2000/svg">
</g>
<g xmlns="http://www.w3.org/2000/svg">
</g>
<g xmlns="http://www.w3.org/2000/svg">
</g>
<g xmlns="http://www.w3.org/2000/svg">
</g>
<g xmlns="http://www.w3.org/2000/svg">
</g>
<g xmlns="http://www.w3.org/2000/svg">
</g>
<g xmlns="http://www.w3.org/2000/svg">
</g>
<g xmlns="http://www.w3.org/2000/svg">
</g>
</g></svg>
