<?xml version="1.0"?>
<svg xmlns="http://www.w3.org/2000/svg" xmlns:xlink="http://www.w3.org/1999/xlink" xmlns:svgjs="http://svgjs.com/svgjs" version="1.1"  x="0" y="0" viewBox="0 0 512 512" style="enable-background:new 0 0 512 512" xml:space="preserve" class=""><g>
<g xmlns="http://www.w3.org/2000/svg">
	<g>
		<path d="M472.516,118.451C426.255,46.377,345.524,0,255.36,0C168.083,0,87.456,43.431,39.683,116.177    c-6.676,10.165-7.507,23.33-2.169,34.356l23.244,48.022c5.668,11.711,17.225,18.861,30.24,18.627    c3.936-0.067,7.716-0.814,11.229-2.136c65.576,135.475,92.914,191.951,139.632,288.488c2.5,5.165,7.727,8.452,13.465,8.466    c0.013,0,0.025,0,0.038,0c5.723,0,10.949-3.257,13.469-8.398l50.223-102.467c7.072,11.32,19.646,18.866,33.949,18.866    c22.056,0,40-17.944,40-40V250.267c6.519-13.298,12.042-24.566,16.214-33.078c3.473,1.334,7.214,2.106,11.118,2.209    c0.303,0.008,0.604,0.012,0.905,0.012c12.648,0,23.896-7.006,29.503-18.448l23.672-48.3    C479.771,141.732,479.044,128.624,472.516,118.451z M188.657,324.75c-14.936-30.856-33.686-69.594-38.509-79.558    c3.769-1.008,7.675-1.525,11.625-1.525c24.813,0,45,20.187,45,45C206.773,303.097,199.836,316.398,188.657,324.75z     M364.533,240.186c-1.007,2.055-1.531,4.313-1.531,6.602V380c0,5.514-4.486,10-10,10c-5.514,0-10-4.486-10-10v-31.206V311.92    c0-8.284-6.716-15-15-15s-15,6.716-15,15v33.395l-57.556,117.428c-25.831-53.376-31.615-65.325-53.582-110.707    c21.371-13.551,34.908-37.356,34.908-63.369c0-41.355-33.645-75-75-75c-8.513,0-16.897,1.451-24.833,4.238l-13.079-27.021    C148.617,141.72,199.452,110,255.36,110c55.365,0,107.403,31.106,132.426,82.749C383.558,201.373,375.306,218.208,364.533,240.186    z M447.476,139.458l-23.672,48.302c-0.206,0.419-0.871,1.672-2.68,1.648c-1.304-0.035-2.232-0.679-2.758-1.911l-0.191-0.446    c-0.001-0.002-0.002-0.005-0.003-0.008C390.478,122.524,326.897,80,255.36,80c-69.632,0-133.328,40.945-161.839,104.815    l-0.202,0.454c-0.553,1.25-1.507,1.896-2.834,1.918c-1.878,0.027-2.518-1.272-2.725-1.702l-23.244-48.023    c-0.765-1.58-0.672-3.426,0.242-4.818C106.967,68.372,178.22,30,255.36,30c78.105,0,149.847,39.124,191.908,104.656    C448.165,136.051,448.244,137.892,447.476,139.458z" fill="#fe5f55" data-original="#000000" style=""/>
	</g>
</g>
<g xmlns="http://www.w3.org/2000/svg">
	<g>
		<path d="M293.871,140.115c-30.327,0-55,24.673-55,55c0,30.327,24.673,55,55,55c30.327,0,55-24.673,55-55    C348.871,164.788,324.198,140.115,293.871,140.115z M293.871,220.115c-13.785,0-25-11.215-25-25c0-13.785,11.215-25,25-25    c13.785,0,25,11.215,25,25C318.871,208.9,307.656,220.115,293.871,220.115z" fill="#fe5f55" data-original="#000000" style=""/>
	</g>
</g>
<g xmlns="http://www.w3.org/2000/svg">
	<g>
		<path d="M272.133,323.028c-7.9-2.493-16.325,1.896-18.815,9.797l-13.753,43.639c-2.49,7.901,1.896,16.325,9.797,18.815    c7.884,2.486,16.32-1.881,18.815-9.797l13.753-43.639C284.42,333.942,280.034,325.518,272.133,323.028z" fill="#fe5f55" data-original="#000000" style=""/>
	</g>
</g>
<g xmlns="http://www.w3.org/2000/svg">
</g>
<g xmlns="http://www.w3.org/2000/svg">
</g>
<g xmlns="http://www.w3.org/2000/svg">
</g>
<g xmlns="http://www.w3.org/2000/svg">
</g>
<g xmlns="http://www.w3.org/2000/svg">
</g>
<g xmlns="http://www.w3.org/2000/svg">
</g>
<g xmlns="http://www.w3.org/2000/svg">
</g>
<g xmlns="http://www.w3.org/2000/svg">
</g>
<g xmlns="http://www.w3.org/2000/svg">
</g>
<g xmlns="http://www.w3.org/2000/svg">
</g>
<g xmlns="http://www.w3.org/2000/svg">
</g>
<g xmlns="http://www.w3.org/2000/svg">
</g>
<g xmlns="http://www.w3.org/2000/svg">
</g>
<g xmlns="http://www.w3.org/2000/svg">
</g>
<g xmlns="http://www.w3.org/2000/svg">
</g>
</g></svg>
